<svg xmlns="http://www.w3.org/2000/svg" xmlns:xlink="http://www.w3.org/1999/xlink" width="500" height="500" preserveAspectRatio="xMidYMid meet" version="1.0" viewBox="0 0 375 375" zoomAndPan="magnify"><defs><clipPath id="id1"><path d="M 0 21 L 188 21 L 188 353.859375 L 0 353.859375 Z M 0 21" clip-rule="nonzero"/></clipPath><clipPath id="id2"><path d="M 149 21 L 375 21 L 375 353.859375 L 149 353.859375 Z M 149 21" clip-rule="nonzero"/></clipPath><clipPath id="id3"><path d="M 229 298 L 359 298 L 359 353.859375 L 229 353.859375 Z M 229 298" clip-rule="nonzero"/></clipPath></defs><g clip-path="url(#id1)"><path fill="#38b6ff" fill-opacity="1" fill-rule="nonzero" d="M 187.5 107.777344 L 80.261719 353.570312 L 0 353.570312 L 149.640625 21.007812 Z M 187.5 107.777344"/></g><g clip-path="url(#id2)"><path fill="#cfd9cd" fill-opacity="1" fill-rule="nonzero" d="M 375.003906 353.570312 L 266.917969 289.8125 L 187.5 107.777344 L 149.640625 21.007812 L 225.355469 21.007812 Z M 375.003906 353.570312"/></g><g clip-path="url(#id3)"><path fill="#38b6ff" fill-opacity="1" fill-rule="nonzero" d="M 267.167969 298.773438 L 229.503906 353.714844 L 358.429688 353.714844 Z M 267.167969 298.773438"/></g><path fill="#38b6ff" fill-opacity="1" fill-rule="nonzero" d="M 218.8125 211.429688 C 218.8125 212.964844 218.699219 214.488281 218.476562 216.007812 C 218.25 217.527344 217.914062 219.019531 217.472656 220.488281 C 217.027344 221.957031 216.476562 223.382812 215.820312 224.773438 C 215.167969 226.160156 214.414062 227.492188 213.5625 228.769531 C 212.710938 230.046875 211.769531 231.253906 210.742188 232.394531 C 209.710938 233.53125 208.605469 234.589844 207.417969 235.566406 C 206.234375 236.542969 204.984375 237.425781 203.667969 238.21875 C 202.355469 239.011719 200.988281 239.703125 199.570312 240.292969 C 198.152344 240.886719 196.703125 241.371094 195.210938 241.75 C 193.722656 242.125 192.214844 242.394531 190.6875 242.550781 C 189.160156 242.707031 187.628906 242.75 186.097656 242.679688 C 184.5625 242.613281 183.039062 242.429688 181.53125 242.140625 C 180.027344 241.847656 178.546875 241.445312 177.097656 240.9375 C 175.652344 240.425781 174.246094 239.8125 172.890625 239.097656 C 171.53125 238.382812 170.230469 237.570312 168.992188 236.664062 C 167.753906 235.757812 166.589844 234.761719 165.496094 233.683594 C 166.328125 234.007812 167.171875 234.296875 168.027344 234.550781 C 168.882812 234.800781 169.746094 235.015625 170.621094 235.195312 C 171.496094 235.371094 172.375 235.511719 173.261719 235.613281 C 174.148438 235.71875 175.039062 235.78125 175.929688 235.808594 C 176.820312 235.835938 177.714844 235.824219 178.605469 235.777344 C 179.496094 235.726562 180.382812 235.640625 181.265625 235.515625 C 182.148438 235.390625 183.027344 235.226562 183.894531 235.027344 C 184.765625 234.828125 185.625 234.589844 186.472656 234.316406 C 187.324219 234.042969 188.160156 233.734375 188.980469 233.390625 C 189.804688 233.046875 190.613281 232.664062 191.402344 232.253906 C 192.191406 231.839844 192.964844 231.390625 193.714844 230.914062 C 194.46875 230.433594 195.199219 229.921875 195.90625 229.378906 C 196.617188 228.839844 197.300781 228.265625 197.960938 227.667969 C 198.617188 227.066406 199.25 226.4375 199.859375 225.785156 C 200.464844 225.128906 201.039062 224.453125 201.589844 223.75 C 202.136719 223.042969 202.652344 222.320312 203.140625 221.570312 C 203.625 220.824219 204.078125 220.054688 204.496094 219.269531 C 204.917969 218.484375 205.304688 217.679688 205.65625 216.859375 C 206.007812 216.042969 206.324219 215.207031 206.601562 214.363281 C 206.882812 213.515625 207.125 212.660156 207.332031 211.792969 C 207.539062 210.925781 207.710938 210.050781 207.84375 209.167969 C 207.972656 208.285156 208.066406 207.402344 208.125 206.511719 C 208.179688 205.621094 208.199219 204.730469 208.179688 203.839844 C 208.160156 202.949219 208.101562 202.058594 208.003906 201.171875 C 207.910156 200.285156 207.777344 199.40625 207.605469 198.53125 C 207.433594 197.65625 207.226562 196.789062 206.980469 195.933594 C 206.734375 195.074219 206.453125 194.230469 206.136719 193.398438 C 205.816406 192.5625 205.464844 191.746094 205.078125 190.941406 C 204.6875 190.140625 204.269531 189.355469 203.8125 188.589844 C 203.359375 187.820312 202.871094 187.074219 202.351562 186.351562 C 201.835938 185.625 201.285156 184.921875 200.707031 184.242188 C 200.128906 183.566406 199.523438 182.914062 198.886719 182.285156 C 200.347656 182.855469 201.753906 183.53125 203.113281 184.3125 C 204.472656 185.089844 205.765625 185.96875 206.992188 186.941406 C 208.214844 187.917969 209.363281 188.976562 210.429688 190.125 C 211.496094 191.269531 212.472656 192.488281 213.355469 193.78125 C 214.238281 195.074219 215.023438 196.425781 215.703125 197.835938 C 216.382812 199.246094 216.957031 200.699219 217.417969 202.195312 C 217.878906 203.691406 218.230469 205.210938 218.460938 206.757812 C 218.695312 208.308594 218.8125 209.863281 218.8125 211.429688 Z M 218.8125 211.429688"/><path fill="#cfd9cd" fill-opacity="1" fill-rule="nonzero" d="M 208.195312 204.535156 C 208.195312 205.167969 208.175781 205.800781 208.140625 206.433594 C 208.101562 207.0625 208.042969 207.695312 207.964844 208.324219 C 207.890625 208.953125 207.792969 209.578125 207.679688 210.203125 C 207.5625 210.824219 207.429688 211.441406 207.277344 212.058594 C 207.125 212.671875 206.953125 213.28125 206.765625 213.886719 C 206.574219 214.492188 206.367188 215.089844 206.140625 215.683594 C 205.917969 216.273438 205.671875 216.859375 205.410156 217.433594 C 205.148438 218.011719 204.871094 218.582031 204.574219 219.140625 C 204.28125 219.703125 203.964844 220.253906 203.636719 220.792969 C 203.308594 221.335938 202.960938 221.867188 202.601562 222.386719 C 202.238281 222.90625 201.863281 223.414062 201.46875 223.910156 C 201.078125 224.410156 200.667969 224.894531 200.246094 225.367188 C 199.824219 225.839844 199.390625 226.300781 198.9375 226.746094 C 198.488281 227.191406 198.027344 227.625 197.550781 228.042969 C 197.074219 228.460938 196.585938 228.863281 196.082031 229.25 C 195.582031 229.640625 195.070312 230.011719 194.546875 230.371094 C 194.023438 230.726562 193.488281 231.066406 192.945312 231.394531 C 192.402344 231.71875 191.847656 232.027344 191.285156 232.316406 C 190.722656 232.609375 190.152344 232.882812 189.570312 233.140625 C 188.992188 233.394531 188.40625 233.636719 187.808594 233.855469 C 187.214844 234.078125 186.617188 234.28125 186.007812 234.464844 C 185.402344 234.648438 184.792969 234.816406 184.175781 234.964844 C 183.558594 235.109375 182.9375 235.238281 182.3125 235.347656 C 181.6875 235.457031 181.0625 235.550781 180.433594 235.621094 C 179.800781 235.691406 179.171875 235.746094 178.539062 235.78125 C 177.90625 235.8125 177.269531 235.828125 176.636719 235.820312 C 176.003906 235.816406 175.371094 235.792969 174.738281 235.75 C 174.105469 235.707031 173.472656 235.644531 172.84375 235.5625 C 172.21875 235.480469 171.589844 235.378906 170.96875 235.261719 C 170.347656 235.140625 169.726562 235 169.113281 234.84375 C 168.5 234.6875 167.890625 234.511719 167.285156 234.316406 C 166.683594 234.125 166.085938 233.910156 165.496094 233.679688 C 164.863281 233.054688 164.253906 232.402344 163.675781 231.722656 C 163.097656 231.042969 162.550781 230.34375 162.03125 229.617188 C 161.511719 228.890625 161.027344 228.144531 160.574219 227.378906 C 160.117188 226.613281 159.695312 225.828125 159.308594 225.023438 C 158.921875 224.222656 158.570312 223.402344 158.253906 222.570312 C 157.933594 221.738281 157.652344 220.890625 157.410156 220.035156 C 157.164062 219.175781 156.957031 218.3125 156.785156 217.4375 C 156.613281 216.5625 156.480469 215.683594 156.382812 214.796875 C 156.289062 213.910156 156.230469 213.019531 156.210938 212.128906 C 156.191406 211.238281 156.210938 210.347656 156.265625 209.457031 C 156.324219 208.570312 156.417969 207.683594 156.546875 206.800781 C 156.679688 205.921875 156.851562 205.046875 157.058594 204.179688 C 157.265625 203.3125 157.507812 202.457031 157.789062 201.609375 C 158.070312 200.761719 158.382812 199.929688 158.734375 199.109375 C 159.085938 198.292969 159.472656 197.488281 159.894531 196.703125 C 160.3125 195.917969 160.765625 195.148438 161.25 194.402344 C 161.738281 193.65625 162.253906 192.929688 162.800781 192.226562 C 163.351562 191.523438 163.925781 190.84375 164.53125 190.1875 C 165.136719 189.535156 165.769531 188.90625 166.429688 188.308594 C 167.089844 187.707031 167.773438 187.136719 168.480469 186.59375 C 169.191406 186.050781 169.921875 185.542969 170.671875 185.0625 C 171.425781 184.582031 172.195312 184.136719 172.988281 183.722656 C 173.777344 183.308594 174.582031 182.929688 175.40625 182.585938 C 176.226562 182.242188 177.0625 181.929688 177.914062 181.65625 C 178.761719 181.382812 179.621094 181.148438 180.492188 180.949219 C 181.359375 180.746094 182.238281 180.585938 183.121094 180.460938 C 184.003906 180.335938 184.890625 180.246094 185.78125 180.199219 C 186.671875 180.148438 187.5625 180.136719 188.453125 180.164062 C 189.347656 180.191406 190.234375 180.253906 191.121094 180.359375 C 192.007812 180.460938 192.886719 180.601562 193.761719 180.777344 C 194.636719 180.957031 195.5 181.171875 196.355469 181.421875 C 197.210938 181.675781 198.054688 181.960938 198.886719 182.285156 C 200.363281 183.738281 201.683594 185.320312 202.84375 187.035156 C 204.003906 188.75 204.984375 190.5625 205.78125 192.472656 C 206.582031 194.382812 207.183594 196.355469 207.589844 198.382812 C 207.996094 200.414062 208.199219 202.464844 208.195312 204.535156 Z M 208.195312 204.535156"/></svg>